<?xml version="1.0" encoding="utf-8"?>
<!-- Generator: Adobe Illustrator 25.3.1, SVG Export Plug-In . SVG Version: 6.00 Build 0)  -->
<svg version="1.1" id="Layer_1" xmlns="http://www.w3.org/2000/svg" xmlns:xlink="http://www.w3.org/1999/xlink" x="0px" y="0px"
	 viewBox="0 0 512 512" style="enable-background:new 0 0 512 512;" xml:space="preserve">
<style type="text/css">
	.st0{fill:#FFFFFF;}
</style>
<g>
	<g>
		<g>
			<path class="st0" d="M256,1.6c-74,0-134.2,60.2-134.2,134.2S182,269.9,256,269.9s134.2-60.2,134.2-134.2S330,1.6,256,1.6z"/>
		</g>
	</g>
	<g>
		<g>
			<path class="st0" d="M422.9,357.6c-36.7-37.3-85.4-57.8-137.1-57.8h-59.6c-51.7,0-100.4,20.5-137.1,57.8
				c-36.6,37.1-56.7,86.1-56.7,138c0,8.2,6.7,14.9,14.9,14.9h417.4c8.2,0,14.9-6.7,14.9-14.9C479.6,443.7,459.5,394.7,422.9,357.6z"
				/>
		</g>
	</g>
</g>
</svg>
