<?xml version="1.0" encoding="utf-8"?>
<!-- Generator: Adobe Illustrator 25.3.1, SVG Export Plug-In . SVG Version: 6.00 Build 0)  -->
<svg version="1.1" id="Layer_1" xmlns="http://www.w3.org/2000/svg" xmlns:xlink="http://www.w3.org/1999/xlink" x="0px" y="0px"
	 viewBox="0 0 2434.1 947.6" style="enable-background:new 0 0 2434.1 947.6;" xml:space="preserve">
<style type="text/css">
	.st0{fill:#D8E3D2;}
	.st1{fill:#3BB64C;}
	.st2{fill:#3BB64B;}
	.st3{fill:#3BB54B;}
	.st4{fill:#3AB54B;}
	.st5{fill:#ED1D25;}
	.st6{fill:#A04E46;}
</style>
<path class="st0" d="M878.9,389.5c0,17.1,0.1,34.2,0.1,51.2c0,130.5,0,261,0,391.5c0,23.4-8.1,43.4-26.3,58.5
	c-11.9,9.9-26,15.5-41.3,15.6c-77.2,0.4-154.5,0.8-231.7-0.1c-38.6-0.4-67.9-33.6-67.9-68.4c0-133.2,0-266.5,0-399.7
	c0-3.4,0.3-6.8,0.5-10.2c1.2,0,2.3-0.1,3.5-0.1c12.4,2.6,24.8,5.2,37.2,7.7c0.6,23.2-0.9,46.3,1.5,69.5
	c3.4,32.1,32.9,60.7,65.2,60.9c50.2,0.2,100.5,0.3,150.7,0c33.7-0.2,65.4-30.8,65.6-65.7c0.1-24.9,0.1-49.9,0-74.8
	c0-3.3,1-7-2.3-9.5C849.3,408.2,864.4,399.3,878.9,389.5z"/>
<path class="st1" d="M229.5,412c3.1-2.2,3.8-5.6,5.2-8.6c33.9-68.6,67.8-137.2,101.4-205.9c3.4-7,7-10.1,15.3-9.9
	c30.1,0.6,60.2,0.2,90.3,0.3c9.7,0,9.8,0.1,9.8,9.4c0,123,0,246.1,0,369.1c0,9.1-0.1,9.2-8.9,9.2c-24.3,0.1-48.6,0.1-72.8,0
	c-7.9,0-8-0.2-8-7.9c-0.2-23.2-0.3-46.5-0.3-69.7c-0.2-50.9-0.4-101.8-0.6-152.8c0-2.6-0.3-5.3-0.5-8.8c-4.4,2.3-5,6.3-6.5,9.4
	c-28.7,59.7-57.2,119.5-85.9,179.3c-6.9,14.4-3.3,11.9-18.7,12c-14.4,0.2-28.7-0.3-43.1,0.2c-6.8,0.3-10.2-1.9-13.2-8.2
	c-26.2-55.2-52.9-110.3-79.4-165.4c-4.5-9.4-9.2-18.8-14.6-30c-2,4.9-1.3,8.2-1.3,11.3c0,72.8,0,145.6-0.1,218.4
	c0,12.9,1.8,12.2-12,12.2c-23.6,0-47.2,0.1-70.8,0c-7.4,0-7.4-0.2-7.6-7.3c-0.1-5.5,0-10.9,0-16.4c0-117.2,0-234.5,0-351.7
	c0-13-2.2-12.3,11.8-12.3c29.4,0,58.8,0.3,88.2-0.2c7.6-0.1,11.5,2.2,14.8,9.1c33.4,68.1,67.1,136,100.8,203.9
	C224.7,404.5,225.9,408.9,229.5,412z"/>
<path class="st2" d="M1301.4,381.5c0-60.8,0-121.7,0-182.5c0-11.7-1.5-11.3,10.9-11.3c94.7,0,189.4,0,284.1,0c1.4,0,2.7,0.1,4.1,0
	c5.5-0.5,6.9,2.1,6.9,7.3c-0.2,21.5-0.1,43.1-0.1,64.6c0,9-0.1,9.1-8.9,9.1c-33.2,0-66.3,0-99.5,0c-29.4,0-58.8,0-88.2,0
	c-7.9,0-8,0.2-8.1,7.8c-0.1,18.5-0.1,36.9,0,55.4c0,8.7,0.1,8.8,9.1,8.8c53,0,106,0,159,0c3.8,0,7.5,0.2,11.3,0
	c4.1-0.2,5.3,1.8,5.3,5.6c-0.1,9.2,0,18.5,0,27.7c0,12.3,0.1,24.6,0,36.9c-0.1,9.7,1.8,10.3-9.7,10.3c-13,0-26,0.2-39,0.2
	c-42.1,0.2-84.1,0.3-126.2,0.5c-0.7,0-1.4,0-2.1,0c-7.5,0.2-7.6,0.2-7.7,8.3c-0.1,5.1,0,10.3,0,15.4c0,13.3,0,26.7,0,40
	c0,8.7,0.1,8.8,9.1,8.8c49.2,0,98.5,0,147.7,0c14.7,0,29.4,0,44.1,0c9.2,0,9.3,0.1,9.3,8.6c0.1,21.2,0.1,42.4,0,63.6
	c0,8.7-0.1,8.8-9.3,8.9c-68.7,0-137.5,0-206.2,0c-28.4,0-56.8,0-85.1,0c-11.5,0-10.7,0.4-10.7-10.5
	C1301.4,503.9,1301.4,442.7,1301.4,381.5z"/>
<path class="st1" d="M2421.8,574c-3.4,2.2-6.2,1.5-8.9,1.5c-29.7,0.1-59.5,0.1-89.2,0c-9.1,0-9.2,0-12.5-8.5
	c-6.8-17.5-13.7-35-20.3-52.6c-2-5.4-4.5-8-10.9-7.9c-50.6,0.3-101.2,0.3-151.7,0c-5.8,0-8.4,1.7-10.4,7.1
	c-7,18.5-14.5,36.8-21.7,55.3c-1.6,4.2-3.5,6.7-8.7,6.7c-31.4-0.3-62.9-0.2-94.3-0.2c-0.6,0-1.3-0.4-2-0.6c-1.4-2.9,0.7-5.2,1.7-7.6
	c52.7-123,105.5-245.9,158.3-368.9c0.7-1.6,1.5-3.1,2-4.7c1.4-4.6,4.3-6.2,9.2-6c10.2,0.3,20.5,0.1,30.8,0.1c18.8,0,37.6,0,56.4,0
	c10.4,0,10.4,0,14.6,10c38.5,91.9,77.1,183.8,115.6,275.8c12.9,30.8,25.9,61.7,38.8,92.5C2419.6,568.6,2420.6,571.1,2421.8,574z
	 M2151.5,428.5c35.8,0,70.4,0,106.2,0c-17.4-45.4-34.5-89.9-52.5-136.9C2186.7,338.5,2169.2,383.2,2151.5,428.5z"/>
<path class="st3" d="M1684.1,440.6c4.1,0.5,5.8,2.9,7.8,4.6c31.2,25,66.5,41.5,105.5,50.1c15.8,3.5,31.8,4.8,47.8,1
	c12-2.9,22.8-7.8,27.1-20.8c4-12.2,1-23-8.3-31.7c-7.6-7.2-16.8-11.8-26.7-14.8c-20.6-6.3-41.2-12.3-61.8-18.5
	c-13.7-4.2-27.3-8.9-40.5-14.5c-7.2-3.1-14.2-6.7-20.7-11.1c-32.9-22-46.7-53.2-44.3-92.2c2.7-42.7,24.4-72.9,61.7-92.6
	c21.2-11.2,44-17,67.7-18.8c60.1-4.8,116.9,7,169.9,36.3c2.1,1.2,4,2.6,6.2,3.7c3.6,1.8,3.6,4.1,2,7.5
	c-11.2,23.4-22.4,46.8-33.3,70.4c-2.2,4.8-4.4,4.9-8.5,2.5c-24.5-13.9-50.3-24.6-77.5-31.8c-17.9-4.7-35.9-8.8-54.6-5.4
	c-3.7,0.7-7.4,1.5-10.9,2.9c-17.4,7.1-22.1,27.1-9.6,41.3c6.7,7.6,15.3,12.5,24.6,16.1c18.2,7,36.9,12.4,55.5,18.1
	c16,4.8,31.8,10.4,47.3,16.7c18,7.3,33.6,18.1,46.5,32.8c19.9,22.6,25,49.6,22.8,78.4c-3.4,45-28.1,75.1-68,93.7
	c-29.1,13.5-60.1,18-91.9,17.3c-53.4-1.2-103-15.9-148.5-44.1c-7.2-4.5-13.9-9.9-20.9-14.7c-3.5-2.5-4.9-4.8-2.6-9.3
	C1660.2,489.3,1672,465,1684.1,440.6z"/>
<path class="st4" d="M936.5,381.5c0-60.8,0-121.6,0-182.5c0-10.9-2.3-11.3,10.9-11.3c53.3,0,106.7-0.1,160,0
	c26.8,0.1,53.3,3,78.3,13.6c43.6,18.4,69,50.9,75.4,98c3.8,27.9,2.1,55.3-7.3,81.9c-15.2,42.7-46.5,68-89.4,79.9
	c-18.2,5.1-36.9,7-55.8,6.8c-20.2-0.1-40.3,0-60.5,0c-10.4,0-10.4,0.1-10.4,10.8c0,29,0,58.1,0,87.1c0,9.5-0.1,9.5-9.5,9.6
	c-27.3,0-54.7,0-82,0c-9.5,0-9.5-0.1-9.5-9.5C936.5,504.5,936.5,443,936.5,381.5z M1037.6,328c0,16.1,0,32.1,0,48.2
	c0,12.3-0.7,11.3,10.8,11.3c16.7,0,33.5,0,50.2,0c7.2,0,14.3-0.6,21.4-1.8c26.1-4.6,42.5-21.7,45.8-48c0.8-6.8,0.9-13.7,0-20.5
	c-3.2-23.3-15.9-38.7-38.7-45.3c-5.9-1.7-11.9-3-18.1-3.1c-21.5-0.1-43.1,0-64.6-0.2c-5.4-0.1-7.1,1.9-7,7.1
	C1037.7,293.2,1037.6,310.6,1037.6,328z"/>
<path class="st0" d="M512.7,415.6c-1.2-4-0.8-8.1-0.8-12.2c0-79.3-0.1-158.6,0-237.8c0.1-38.3,30.5-68.9,69-69
	c74.2-0.2,148.4-0.1,222.6-0.1c2.1,0,4.1,0.1,6.2,0c7.7-0.2,7.8-0.2,7.9-8.3c0.1-12.6,0.6-25.3-0.1-37.9
	c-0.9-14.3,13.1-28.5,27.9-27.9c9.9,0.4,18.7,1.4,25.9,9.4c5.2,5.7,7.9,11.7,7.9,19.2c0,86.1-0.1,172.2-0.1,258.4c0,1-0.1,2-0.2,3.1
	c-14.6-6.2-29-12.9-42.8-20.7c0-12.6,0-25.3,0.1-37.9c0.4-37.1-32.5-67.3-67.2-67.2c-48.9,0.2-97.7,0-146.6,0.1
	c-23.6,0.1-41.4,10.9-55.6,29.4c-11.7,15.1-13,32.8-13.4,50.4c-0.8,38.6-0.2,77.2-0.3,115.8c0,4.5,0.3,8.9,4.3,12
	C543.9,404.5,529.4,412.3,512.7,415.6z"/>
<path class="st5" d="M835.9,291.7c13.9,7.7,28.2,14.5,42.8,20.7c16.1,8.1,32.2,16.2,48.9,24.6c-9.4,14.7-20.4,27.1-32.7,38.4
	c-5.3,4.8-10.7,9.4-16.1,14.2c-14.5,9.8-29.6,18.7-45.2,26.6c-55.3,23.6-113.3,30.7-172.8,29.7c-36.2-0.6-72-4.9-107.8-10
	c-12.4-2.6-24.8-5.2-37.2-7.7c3.8-2.3,8-1.2,12-1.2c14.3,0.2,28.5-0.1,42.6-3c29.4-6.2,56-18.8,80.5-35.9c2-1.4,4.1-2.5,4.5-5.2
	c4.9-1.2,8.2-4.9,11.8-7.9c36.7-30.5,65.6-67.4,89.1-108.8c1.7-2.9,2.7-6.3,5.8-8.9c3.2,1.5,6.6,3,9.9,4.5
	C793.4,271.4,814.2,282.7,835.9,291.7z"/>
<path class="st6" d="M655.5,382.6c-0.4,2.7-2.5,3.8-4.5,5.2c-24.5,17.2-51.1,29.7-80.5,35.9c-14.1,3-28.3,3.2-42.6,3
	c-4,0-8.2-1.1-12,1.2c-1.2,0-2.4,0-3.5,0.1c-8.2-2.7-16.4-5.4-24.6-8.1c8.3-2,16.9-1.3,24.9-4.4c16.7-3.3,31.2-11.1,44.6-21.3
	c21.6-14.6,37.9-34.5,54-55.4C623.4,356.9,636.3,373,655.5,382.6z"/>
</svg>
